<svg width="15" height="14" fill="none" xmlns="http://www.w3.org/2000/svg"><path fill-rule="evenodd" clip-rule="evenodd" d="M12.325 4.488h.919c.42 0 .77.33.77.739 0 .4-.35.73-.77.73h-.333l.228.291c-.006.34-.004.746-.002 1.109l.002.463v3.928c0 .519-.333.786-.875.786-.543 0-.875-.267-.875-.786v-.785h-8.75v.786c0 .518-.333.785-.875.785-.543 0-.875-.267-.875-.786v-5.5l.227-.282H.784c-.42 0-.77-.33-.77-.739s.35-.739.77-.739h.918l.674-1.665c.166-.417.665-.849 1.103-.975 0 0 1.155-.314 3.535-.314s3.535.314 3.535.314c.446.126.945.558 1.11.975l.666 1.665zM2.639 8.606h1.75V7.034h-1.75v1.572zm8.75 0h-1.75V7.034h1.75v1.572zm-8.75-3.143h8.75c.157 0 .052-.645 0-.786l-.64-1.28a2.392 2.392 0 01-.02-.059c-.041-.121-.08-.233-.216-.233h-7c-.136 0-.174.112-.215.233l-.02.058-.64 1.28c-.052.142-.157.787 0 .787z" fill="#626B74"/></svg>