<svg width="15" height="13" fill="none" xmlns="http://www.w3.org/2000/svg"><g clip-path="url(#clip0)"><g clip-path="url(#clip1)" fill="#626B74"><path d="M5.01 9.392c.157.581.196 1.09.196 1.198.078.581.663 1.017 1.327.944.624-.073 1.131-.653 1.014-1.234-.078-.472-.35-.726-.468-1.198-.43.072-.858.145-1.327.218-.234 0-.468.036-.741.072zm.196-6.135c-.897.109-1.405 1.488-1.17 3.05.077.508.507 1.524.78 2.468.273-.036.546-.036.82-.072.468-.073.897-.146 1.326-.218-.039-.944.39-1.634.234-2.542-.195-1.597-1.092-2.795-1.99-2.686zM11.02 6.67c-.156.617-.156 1.125-.195 1.197-.078.581-.663 1.017-1.288.944-.624-.072-1.131-.617-1.014-1.198.078-.472.312-.726.468-1.234.43.073.859.145 1.327.218.234.036.468.036.702.072zM10.747.534c.898.109 1.444 1.452 1.21 3.05-.078.507-.468 1.524-.742 2.468-.273-.037-.546-.037-.82-.073a7.742 7.742 0 01-1.326-.218c0-.944-.43-1.633-.273-2.54C8.99 1.622 9.85.424 10.747.533z"/></g></g><defs><clipPath id="clip0"><path fill="#fff" transform="translate(.996 .534)" d="M0 0h14v12.013H0z"/></clipPath><clipPath id="clip1"><path fill="#fff" transform="translate(3.996 .534)" d="M0 0h8v11H0z"/></clipPath></defs></svg>