<svg width="64" height="65" fill="none" xmlns="http://www.w3.org/2000/svg"><path fill-rule="evenodd" clip-rule="evenodd" d="M10.793 48.982V14.316h31.484v34.666c0 .935.158 1.833.448 2.667H13.417c-1.45 0-2.624-1.194-2.624-2.667zm39.355 8H13.417c-4.347 0-7.871-3.581-7.871-8v-40h41.978v13.334H58.02v26.666c0 4.419-3.524 8-7.87 8zm0-5.333c1.45 0 2.624-1.194 2.624-2.667V27.65h-5.248v21.333c0 1.473 1.175 2.667 2.624 2.667zm-23.613-32v10.667H16.041V19.649h10.494zm10.495 8v-5.333h-7.871v5.333h7.87zm0 5.333v5.334H16.04v-5.334h20.99zm0 13.334v-5.334H16.04v5.334h20.99z" fill="#4690D5"/></svg>