<svg width="20" height="20" fill="none" xmlns="http://www.w3.org/2000/svg"><path d="M19.567 16.129a2.73 2.73 0 01-.358.965c-.353.589-.812 1.086-1.325 1.533-.376.327-.773.623-1.223.841a2.955 2.955 0 01-2.073.216c-.746-.187-1.454-.478-2.14-.82a23.647 23.647 0 01-6.205-4.43c-1.448-1.445-2.65-3.085-3.68-4.858-.545-.935-1.031-1.9-1.384-2.928-.143-.417-.27-.839-.285-1.283-.023-.636.183-1.21.488-1.754.25-.445.557-.843.919-1.2.39-.386.793-.765 1.256-1.059.264-.168.555-.296.846-.415.28-.116.56-.072.835.058.53.254.945.644 1.302 1.102a13.129 13.129 0 011.625 2.747c.072.166.139.336.193.508a.765.765 0 01-.179.797c-.097.103-.205.2-.32.281a7.58 7.58 0 01-1.547.826c-.075.03-.144.072-.216.103-.655.264-.781 1.116-.572 1.584.379.847.898 1.598 1.492 2.299.868 1.021 1.811 1.967 2.902 2.747a31.7 31.7 0 001.616 1.066c.436.27.941.193 1.363-.172a1.68 1.68 0 00.396-.508c.256-.503.51-1.009.773-1.508a3.08 3.08 0 01.289-.421c.255-.332.727-.428 1.11-.244.458.223.87.52 1.28.814.832.592 1.623 1.23 2.331 1.968.098.102.2.21.27.331.09.151.15.319.223.478-.002.111-.002.225-.002.336z" fill="#fff"/></svg>