<svg width="25" height="27" fill="none" xmlns="http://www.w3.org/2000/svg"><path fill-rule="evenodd" clip-rule="evenodd" d="M12.09 2.954l8.5 2.68v7.925c0 2.846-2.322 6.554-8.245 9.278l-.255.117-.255-.117c-5.921-2.723-8.245-6.43-8.245-9.23V5.635l8.5-2.68zM4.834 6.576v7.031c0 2.043 1.743 5.338 7.256 7.948 5.51-2.61 7.256-5.904 7.256-7.996V6.576L12.09 4.288 4.834 6.576zm7.104.478c-2.417 0-4.377 2.009-4.377 4.487s1.96 4.487 4.377 4.487c2.418 0 4.378-2.01 4.378-4.487 0-2.478-1.96-4.487-4.378-4.487zM6.317 11.54c0-3.183 2.517-5.762 5.621-5.762 3.105 0 5.622 2.58 5.622 5.762 0 3.182-2.517 5.762-5.622 5.762-3.104 0-5.621-2.58-5.621-5.762zm5-3.703h1.243v3.439l1.636 1.676-.88.902-2-2.05V7.838z" fill="#2E3945"/></svg>