<svg width="16" height="16" fill="none" xmlns="http://www.w3.org/2000/svg"><path fill-rule="evenodd" clip-rule="evenodd" d="M16 8A8 8 0 110 8a8 8 0 0116 0zM9.956 3.467s.977.266 1.955 1.155c1.067.978 1.956 2.311 1.867 4.445-.09 1.778-1.511 3.289-1.511 3.289H9.6s2.311-1.156 2.844-2.934c.711-2.044-.355-3.555-1.155-4.266-.356-.267-.8-.267-.978.266C9.69 7.2 8 12.356 8 12.356S6.311 7.2 5.689 5.422c-.178-.622-.622-.533-.978-.266-.8.71-1.778 2.222-1.155 4.444.533 1.778 2.844 2.934 2.844 2.934H3.733s-1.422-1.512-1.51-3.29c-.09-2.222.8-3.644 1.866-4.533.978-.889 1.955-1.155 1.955-1.155L8 9.689l1.956-6.222z" fill="#fff"/></svg>