<svg width="25" height="27" fill="none" xmlns="http://www.w3.org/2000/svg"><path fill-rule="evenodd" clip-rule="evenodd" d="M8.635 6.3a16.8 16.8 0 00-.218.417c-.273.546-.362 1-.26 1.413.103.411.43.91 1.275 1.474l-.678 1.018c-.99-.66-1.58-1.383-1.783-2.195-.202-.81.014-1.58.352-2.257.08-.16.161-.31.234-.447l.01-.018c.07-.131.131-.246.186-.356.117-.234.18-.397.202-.534.032-.19.018-.46-.517-.996l.865-.865c.687.688.98 1.334.858 2.062-.053.321-.182.616-.314.88-.063.125-.132.254-.2.38l-.012.024zm3.669 0a16.07 16.07 0 00-.218.417c-.273.546-.363 1-.26 1.413.103.411.43.91 1.275 1.474l-.678 1.018c-.99-.66-1.58-1.383-1.783-2.195-.203-.81.014-1.58.352-2.257.08-.16.16-.31.234-.447l.01-.018c.07-.131.131-.246.186-.356.117-.234.18-.397.202-.534.031-.19.018-.46-.517-.996l.865-.865c.687.688.98 1.334.858 2.062-.053.321-.182.616-.314.88-.063.125-.132.254-.2.38l-.012.024zM3.59 11.947h14.676v2.446H21.8l.115.463c.224.896.306 2.276-.254 3.466a3.537 3.537 0 01-1.415 1.566c-.587.348-1.316.561-2.2.61a5.774 5.774 0 01-.205.671c-.31.823-.938 1.77-2.11 1.77-.492 0-1.071.003-1.663.007-1.213.008-2.477.016-3.141-.007-.665.023-1.928.015-3.142.007-.591-.004-1.17-.008-1.663-.008-1.172 0-1.799-.946-2.11-1.768-.322-.855-.423-1.85-.423-2.506v-6.717zm14.676 7.306c.58-.064 1.022-.218 1.358-.418.443-.262.738-.622.932-1.033.32-.682.357-1.507.263-2.186h-2.553v3.637zm-1.223-6.083H4.813v5.494c0 .565.091 1.402.345 2.073.266.704.6.979.965.979.52 0 1.117.003 1.719.007 1.208.008 2.432.016 3.063-.007h.045c.632.023 1.856.015 3.064.007.601-.004 1.2-.007 1.718-.007.366 0 .7-.275.966-.979.253-.671.345-1.508.345-2.073V13.17z" fill="#2E3945"/></svg>