<svg width="65" height="65" fill="none" xmlns="http://www.w3.org/2000/svg"><path fill-rule="evenodd" clip-rule="evenodd" d="M32.701 8.982c10.31 0 18.667 8.358 18.667 18.667 0 10.31-8.357 18.667-18.667 18.667-10.309 0-18.666-8.358-18.666-18.667 0-10.31 8.357-18.667 18.666-18.667zm2.667 45.202v2.798H40.7v5.333h-16v-5.333h5.333v-2.799a26.576 26.576 0 01-16.072-7.562l3.748-3.794a21.252 21.252 0 0014.99 6.155c11.783 0 21.334-9.551 21.334-21.333a21.25 21.25 0 00-5.974-14.806l3.84-3.702a26.582 26.582 0 017.468 18.508c0 13.827-10.525 25.197-24 26.535zm-16-26.535c0-7.364 5.97-13.333 13.333-13.333 7.364 0 13.334 5.97 13.334 13.333 0 7.364-5.97 13.333-13.334 13.333s-13.333-5.97-13.333-13.333z" fill="#4690D5"/></svg>