<svg width="62" height="65" fill="none" xmlns="http://www.w3.org/2000/svg"><path fill-rule="evenodd" clip-rule="evenodd" d="M59.348 32.983c0-16.2-12.517-29.334-27.958-29.334-15.441 0-27.958 13.133-27.958 29.334 0 16.2 12.517 29.333 27.958 29.333 15.44 0 27.958-13.133 27.958-29.334zm-6.716-8.922c-2.321-6.079-6.945-10.93-12.739-13.366 1.36 2.754 2.426 6.187 3.145 10.067 3.698.754 6.97 1.873 9.594 3.3zm-32.89-3.3c.719-3.88 1.785-7.312 3.145-10.066-5.794 2.436-10.418 7.287-12.74 13.366 2.625-1.426 5.897-2.545 9.595-3.3zM8.515 32.984c0-2.398 4.14-5 10.458-6.565a72.827 72.827 0 00-.291 6.565c0 2.253.099 4.45.29 6.564-6.318-1.564-10.457-4.166-10.457-6.564zm1.633 8.92c2.624 1.427 5.896 2.546 9.594 3.3.719 3.88 1.785 7.313 3.145 10.067-5.794-2.436-10.418-7.287-12.74-13.366zm32.89 3.3c-.719 3.88-1.785 7.313-3.145 10.067 5.794-2.436 10.418-7.287 12.74-13.366-2.625 1.426-5.897 2.545-9.595 3.3zm1.06-12.22c0 2.253-.099 4.45-.29 6.564 6.317-1.564 10.457-4.166 10.457-6.564 0-2.398-4.14-5-10.458-6.565a72.79 72.79 0 01.291 6.565zm-20.333 0c0-2.641.158-5.175.439-7.54 2.254-.295 4.67-.46 7.186-.46 2.517 0 4.931.165 7.186.46a64.13 64.13 0 01.439 7.54c0 2.64-.158 5.174-.439 7.54a55.75 55.75 0 01-7.186.46 55.74 55.74 0 01-7.186-.46 64.159 64.159 0 01-.439-7.54zm1.368 13.027c1.491 6.63 3.971 10.973 6.257 10.973 2.286 0 4.766-4.344 6.257-10.973-2.014.202-4.11.306-6.257.306-2.148 0-4.243-.104-6.257-.306zM31.39 8.983c-2.286 0-4.766 4.343-6.257 10.971a63.085 63.085 0 016.257-.305c2.148 0 4.242.104 6.257.305-1.491-6.628-3.971-10.971-6.257-10.971z" fill="#4690D5"/></svg>