<svg width="62" height="65" fill="none" xmlns="http://www.w3.org/2000/svg"><path fill-rule="evenodd" clip-rule="evenodd" d="M53.453 11.649v26.667c0 2.945-2.276 5.333-5.084 5.333H33.12v3.823l11.475 7.224-2.616 4.573-8.858-5.577v5.957h-5.084v-5.957l-8.859 5.577-2.615-4.573 11.474-7.224V43.65h-15.25c-2.807 0-5.083-2.388-5.083-5.333V11.649H5.16V6.316h50.834v5.333h-2.542zm-40.667 0v26.667H48.37V11.649H12.785zm7.625 21.333h5.083V22.316h-5.083v10.666zm12.709 0h-5.084v-16h5.084v16zm2.541 0h5.084v-8H35.66v8z" fill="#4690D5"/></svg>